<svg xmlns="http://www.w3.org/2000/svg" viewBox="0 0 590.14 448.7"><defs><style>.cls-1{fill:#fff;}</style></defs><title>Fichier 1</title><g id="Calque_2" data-name="Calque 2"><g id="Calque_3" data-name="Calque 3"><path class="cls-1" d="M272.62.68c3.53,3.13,5.36,4.6,7,6.24,34.06,33.42,68.27,66.71,102,100.46,6.14,6.15,9.52,5.14,15-.4,32.52-32.92,65.38-65.5,98-98.35,2.25-2.26,3.3-5.72,4.91-8.63l3.34,2.7V257.52c-4.46-4.41-7.68-7.68-11-10.85-9.32-8.89-19-17.45-27.84-26.79-2.48-2.6-3.64-7.42-3.68-11.23-.28-30.65-.16-61.3-.16-91.95v-9.38l-69.17,70c-4.74-4.21-6.75-5.82-8.56-7.62q-51.66-51.6-103.37-103.15c-4.62-4.58-6.8-9.21-6.62-15.8C272.9,34.85,272.62,19,272.62.68Z"/><path class="cls-1" d="M117.24,177c-10.64-10.72-19-18.87-27-27.41A13,13,0,0,1,87,141.62c-.28-17.67-.14-35.35-.14-55.8,8.38,8.63,15.38,15.42,21.85,22.67,4.55,5.1,8,4.75,12.39-.16,5-5.6,10.5-10.74,15.86-16Q181,49.16,225.09,6c1-1,2.09-1.84,3.87-3.4V256.46c-14-13.55-27.09-25.77-39.57-38.55-2.32-2.37-3.18-7-3.21-10.63-.25-29.75-.12-59.5-.16-89.25,0-3.14-.29-6.28-.46-9.83Z"/><path class="cls-1" d="M547.16,257.08V.81c3.69,3.45,6.15,5.72,8.58,8,10.43,9.9,21,19.65,31.14,29.86,2,2,3.11,5.83,3.12,8.83q.29,81.57,0,163.14c0,3-1,6.94-3,8.92C574.4,231.91,561.38,243.79,547.16,257.08Z"/><path class="cls-1" d="M42.59,256.74c-2.82-2.58-4.83-4.31-6.71-6.17-6.4-6.35-11.83-14.3-19.33-18.79C.43,222.13-.14,207.93,0,191.66.61,131.85.25,72,.25,12.21v-11C15.1,15.71,28.63,28.75,41.89,42.08c1.41,1.41,1.64,4.46,1.64,6.76q.12,101.89,0,203.8A25.62,25.62,0,0,1,42.59,256.74Z"/><path class="cls-1" d="M273.06,257.14V122.59a66.2,66.2,0,0,1,5.93,4.54c9.4,9.3,18.34,19.11,28.19,27.9,6.93,6.18,10.05,13,8.87,22.11a39.48,39.48,0,0,0,0,11.69c3.62,20.43-3.71,35.93-20.08,48.13C288.36,242.63,281.65,249.51,273.06,257.14Z"/><path class="cls-1" d="M268.33,448.39c-21.91.08-42.88-20.94-42.59-42.71s20.72-42.07,42.28-42.12c21.89-.05,42.87,21,42.53,42.77C310.2,428.22,290,448.31,268.33,448.39Zm-.75-16.29c16.39,0,26-9.73,26.86-25.56.83-14.58-12.63-27.82-25.76-27-16.31,1.08-25.93,10-26.84,25.83C241,420,254.54,434.29,267.58,432.1Z"/><path class="cls-1" d="M164.45,413.71c0,8.88-.29,17.78.1,26.65.28,6.52-2.6,8.21-8.61,8.17s-7.91-2.2-7.86-8c.2-23.08-.05-46.18.28-69.26,0-2.54,2.81-7.28,4.14-7.22,11.78.53,24.45-.51,35.05,3.58C207.09,375.19,210,400.17,194,414c-5,4.33-4.58,7.1-1.29,11.76,4.77,6.75,8.92,13.93,13.44,21.09-14.13,3.63-16.75,2.52-23.58-9-5-8.38-10.13-16.66-15.2-25Zm.58-9c8.28.08,16.84,3,20.83-5.69,1.81-3.93,1.81-10.34-.24-14.05-4.52-8.18-12.84-4.79-20.59-4.51Z"/><path class="cls-1" d="M422.85,414.11v18c8.74,0,17.32.21,25.88-.08,5.73-.19,8.06,1.85,8.07,7.8s-1.57,8.87-8.14,8.66c-11.7-.36-23.43-.25-35.14,0-5.39.1-7.52-2-7.48-7.43q.22-35.14,0-70.29c0-4.81,1.61-7.27,6.76-7.21,12.32.15,24.64.2,36.95,0,5.83-.1,7,2.94,7,7.93,0,5.27-.91,8.72-7.33,8.49-8.61-.31-17.24-.08-26.43-.08v18c6.32,0,12.24.15,18.14,0,6.12-.19,6.54,3.6,6.58,8.28,0,4.84-.81,8.31-6.78,8.08C435.27,413.94,429.6,414.11,422.85,414.11Z"/><path class="cls-1" d="M521.19,384.24c-6.83.85-13.07,6-18.42-2.81-.84-1.39-8.92-.53-11.44,1.74-4.23,3.82-3.47,9.65,1.39,13.13,3.81,2.73,8.49,4.28,12.88,6.14,11.81,5,18.88,14.2,17.65,23.22-1.39,10.19-13.89,22-24,22.7-11.22.77-22.49-7.67-26.05-20.08,6.21-1.48,11.92-6.24,17.78,1.92,3,4.14,12.73,2.45,14.91-2,2.68-5.51,2-10.47-4.43-13.25-4.94-2.13-10-4-14.73-6.57-9.54-5.23-15.1-15.21-13.49-23.25a26.55,26.55,0,0,1,22.56-21.4c8.66-1.2,18.91,5.3,23.5,15A55.09,55.09,0,0,1,521.19,384.24Z"/><path class="cls-1" d="M319.85,364.66c15.61-2.37,16.43-1.94,22.53,10.16,3,6,6.15,11.92,10.54,20.42,4.32-8.38,7.43-14.28,10.43-20.24,6.17-12.25,6.66-12.52,22.27-10.5-5.77,11.07-10.51,22.31-17.16,32.27-6.42,9.62-8.18,19.55-7.44,30.55.28,4.18-.2,8.41.1,12.59.43,6-1.61,8.68-8.11,8.65-6.28,0-9.39-2.33-8.16-8.44,4.92-24.46-7.7-43.84-18.16-63.85C324.79,372.63,322.52,369.17,319.85,364.66Z"/><path class="cls-1" d="M108.53,379.84c0,20.88-.17,40.58.1,60.28.09,6.25-2.11,8.4-8.36,8.44-6.53,0-8.19-2.7-8.11-8.68.24-19.46.09-38.92.09-60-4.37,0-8.12-.26-11.82.06-6.52.56-8.2-2.57-8.17-8.57s2.22-8,8-7.86q20.24.39,40.48,0c6-.12,7.8,2.45,7.75,8.1,0,5.39-1.21,8.78-7.48,8.31C117.45,379.63,113.85,379.84,108.53,379.84Z"/></g></g></svg>